<?xml version="1.0" encoding="UTF-8" standalone="no"?>
<svg
   viewBox="0 0 512 512"
   width="512"
   height="512"
   version="1.1"
   id="svg2"
   xml:space="preserve"
   xmlns="http://www.w3.org/2000/svg"
   xmlns:svg="http://www.w3.org/2000/svg"><defs
     id="defs1"><style
       id="style1">
      .clef { fill: #000435; }
      .circle { fill: #ca9762; }
      .cross { fill: #ffffff; }
    </style></defs><!-- Gold circle with white cross (center of the clef) --><!-- Treble clef path - dark navy --><g
     id="g41"
     transform="translate(-221.34087,639.36338)"><g
       id="g43"
       transform="translate(699.44727,-618.30859)"><path
         id="path42"
         style="fill:#020835"
         d="m -185.18945,-6.5390625 -3.17383,0.00195 -2.25586,0.3945313 c -7.92029,1.3854327 -16.75839,6.79233136 -24.88867,15.2265625 L -218.5,12.18945 l -2.17969,2.902344 c -10.47795,13.964306 -16.6423,31.574877 -18.59765,53.130859 l -0.42969,4.753906 -0.14844,30.187501 -0.14648,30.1875 -0.51563,0.85352 -0.51367,0.85351 -7.70703,6.2461 c -4.23908,3.43495 -9.44101,7.66977 -11.56055,9.41015 -40.42357,33.19233 -56.65257,52.08292 -66.96484,77.95118 l -2.04688,5.13867 -1.11718,3.85351 c -2.60212,8.98654 -3.75583,15.88176 -4.21485,25.17774 l -0.21484,4.36718 0.20898,4.23829 c 1.14951,23.1681 9.88462,42.79407 26.60156,59.76562 l 3.81641,3.87305 3.08399,2.54297 c 17.70323,14.59837 40.90026,23.86359 65.60546,26.20507 l 4.27344,0.40626 7.95313,0.0957 7.95312,0.0957 0.72852,0.30274 0.73047,0.30273 0.33984,0.66992 c 0.60326,1.19314 0.74912,2.85705 1.5625,17.75586 0.21214,3.88582 0.56289,10.01202 0.7793,13.61524 0.21641,3.6032 0.46353,10.36631 0.54882,15.02929 l 0.1543,8.47852 -0.30078,3.59765 -0.30078,3.59571 -0.75781,3.40039 -0.75782,3.40039 -0.88671,2.19922 c -4.49831,11.15562 -14.32486,17.89193 -28.34375,19.42968 l -2.90821,0.31836 -3.26758,-0.29882 c -5.55414,-0.51006 -9.53379,-1.57881 -10.70507,-2.87305 l -0.44141,-0.48828 0.5957,-0.80469 0.59375,-0.80469 2.57617,-1.53515 c 1.41587,-0.84429 3.60905,-2.37464 4.875,-3.40039 l 2.30274,-1.86329 1.85742,-2.29687 1.85938,-2.29687 1.14453,-2.18946 c 1.45492,-2.78342 2.34196,-5.28242 2.89453,-8.14648 l 0.4375,-2.26367 -0.01,-4.23829 -0.01,-4.24023 -0.40625,-2.05469 c -0.55662,-2.8227 -1.0198,-4.50135 -1.96094,-7.09961 l -0.80273,-2.21679 -1.30665,-2.2793 c -1.77161,-3.09043 -3.04736,-4.69193 -5.93359,-7.45117 l -2.44726,-2.33985 -2.14844,-1.42968 c -3.26371,-2.1716 -7.41759,-3.859 -11.25977,-4.57422 l -1.66992,-0.31055 -4.24023,0.008 -4.23829,0.008 -2.05468,0.43359 c -13.40332,2.82683 -22.44211,12.42852 -25.31641,26.89453 l -0.53125,2.66992 -0.29101,3.65821 -0.29297,3.6582 0.30273,3.15039 c 2.51066,26.26118 26.07578,45.10515 58.49805,46.77734 h 0.002 c 0.84715,0.0437 1.77235,0.10058 2.05469,0.12696 1.75704,0.16398 10.82821,-0.7696 14.51562,-1.49414 10.27931,-2.01982 17.33589,-5.22196 24.86719,-11.28321 l 2.64258,-2.1289 2.45508,-2.73438 2.45312,-2.73437 1.97852,-2.95508 c 6.55474,-9.79483 9.27617,-19.1217 10.08594,-34.55469 l 0.31054,-5.91016 -0.4414,-9.24804 c -0.42577,-8.90961 -1.15504,-20.04903 -1.69922,-25.94922 -0.83505,-9.05351 -0.97885,-12.08006 -0.96485,-16.28125 0.004,-1.05586 -0.0472,-1.87273 -0.0215,-3.24414 0.0212,-1.13042 -0.21751,-5.23332 -0.53125,-9.11914 l -0.57031,-7.06641 -0.3125,-0.31641 -0.3125,-0.3164 -1.53711,0.93359 c -0.0705,0.0428 -0.82484,0.47648 -1.96875,1.09375 -0.65702,0.36562 -1.19288,0.60999 -2.25977,1.1543 -1.45397,0.73406 -3.04205,1.50159 -5.11133,2.39648 -2.90745,1.27462 -6.14726,2.52291 -9.91211,3.65625 -0.005,10e-4 -0.009,0.003 -0.0137,0.004 -4.5782,1.37729 -9.55773,2.47942 -14.64062,2.72852 l -3.33985,0.16406 -4.24023,-0.30664 -4.23828,-0.30469 -4.4961,-0.76172 -4.49609,-0.76172 -3.59766,-1.00586 c -5.25932,-1.47068 -8.43384,-2.62938 -13.56054,-4.94531 l -4.57031,-2.06445 -3.92579,-2.35742 c -4.76389,-2.85965 -7.36896,-4.71978 -11.08398,-7.91797 l -2.82617,-2.4336 -2.48242,-2.79687 c -3.27467,-3.69066 -4.23725,-4.91876 -6.45313,-8.23633 l -1.85742,-2.7832 -1.96289,-3.85352 c -1.0794,-2.11954 -2.50821,-5.23868 -3.17383,-6.93164 l -1.20898,-3.07812 -1.11133,-4.3711 -1.11133,-4.37304 -0.40234,-2.89063 c -0.22135,-1.58991 -0.51822,-5.00156 -0.66016,-7.58008 l -0.25781,-4.6875 0.26953,-3.98242 c 1.55466,-23.00884 10.31667,-40.49287 31.74414,-63.33398 8.55038,-9.11449 21.03777,-19.81939 29.90234,-25.63672 l 1.41211,-0.92774 1.0332,-0.16211 1.03321,-0.16211 0.44531,1.24414 0.44531,1.24219 v 14.06641 l -0.002,13.43945 c 5.3e-4,-2.6e-4 0.001,2.6e-4 0.002,0 10.45745,-4.51436 19.45255,-6.67233 26.69727,-7.58789 l 0.0898,-0.91992 -0.19336,-20.85547 -0.1914,-20.85352 0.53906,-1.11328 0.53906,-1.11328 2.61914,-2.04687 c 45.31087,-35.40238 65.16684,-74.338536 59.41016,-116.501959 -3.19701,-23.415736 -17.08833,-46.3697872 -30.07227,-49.6933597 l -1.57812,-0.4042969 z m 4.71289,31.0214845 1.70898,0.123047 1.70899,0.123047 1.54101,0.78125 1.54102,0.78125 1.08789,1.101562 1.08789,1.101563 1.02734,1.976562 1.0293,1.976563 0.68164,2.666015 0.68359,2.666016 0.11719,5.615234 0.11719,5.615235 -0.29688,2.091796 c -0.50281,3.530228 -1.72643,8.639356 -2.99804,12.517579 l -1.21289,3.695312 -2.34571,4.628906 c -7.23702,14.277584 -22.83744,31.160101 -35.88672,38.835941 -2.34736,1.38077 -3.03968,1.34874 -3.81445,-0.16992 l -0.50195,-0.98438 -0.26172,-3.42383 -0.25977,-3.42383 -0.002,-5.792965 v -5.792969 l 0.26758,-3.455078 c 1.61781,-20.979939 9.0463,-40.025718 21.13672,-54.183594 l 2.00781,-2.349609 2.05859,-1.626953 c 1.13209,-0.895189 3.00308,-2.164263 4.15821,-2.820313 l 2.09961,-1.193359 1.75976,-0.541016 z m -79.66016,87.130858 -4.57617,1.1875 c -33.33134,8.6392 -54.52004,20.78564 -77.79883,44.60352 l -4.625,4.73242 -3.35742,4.10547 c -15.02811,18.37176 -23.8809,34.75884 -30.46094,56.38672 -4.47582,14.71156 -6.55086,27.65537 -7.28906,45.47265 l -0.1543,3.72656 0.40821,6.16602 c 0.5011,7.58699 0.91566,11.41888 1.92382,17.76758 0.78682,4.95491 1.08861,6.48484 2.56055,13.03711 2.95522,13.15495 9.12574,29.45644 15.7168,41.51758 l 2.5957,4.75195 3.14648,4.75195 c 4.73863,7.1585 8.69045,12.33783 15.38868,20.16797 l 3.07617,3.5957 6.83008,6.81641 6.83007,6.81445 3.72461,3.10157 c 2.04889,1.7049 4.28284,3.52245 4.96485,4.03906 l 1.24023,0.93945 h 0.60352 0.60547 l 0.41406,-0.41601 c 0.22831,-0.22831 1.74066,-3.06668 3.35937,-6.3086 l 2.94336,-5.89453 v -0.70508 -0.70508 l -0.83593,-0.77734 c -0.45923,-0.42732 -2.16409,-1.85942 -3.78907,-3.18164 -32.19583,-26.19725 -51.78298,-63.9493 -55.25781,-106.50391 l -0.29492,-3.61523 0.13281,-8.8457 0.13281,-8.84571 0.4004,-3.46875 c 6.23309,-53.77406 38.55583,-98.8919 85.45898,-119.28906 6.30994,-2.74406 14.13243,-5.46273 25.19726,-8.75781 l 2.20313,-0.65625 0.49414,-0.54688 0.49414,-0.54492 0.082,-5.81836 0.0801,-5.81836 -0.21094,-1.41211 -0.21289,-1.41406 -1.07226,-0.0781 z m 109.49024,10.81836 -0.38086,0.44922 c -0.21043,0.24728 -1.79071,2.82689 -3.50977,5.73242 l -3.125,5.2832 v 0.7793 0.7793 l 0.44922,0.39453 c 0.24728,0.21711 2.80214,1.74446 5.67578,3.39453 13.24266,7.60405 18.95625,11.55509 28.18945,19.48828 l 4.60743,3.95899 4.63867,4.72656 c 21.240676,21.65154 33.572085,44.94526 39.908201,75.37891 0.790845,3.79858 1.658935,10.03879 2.359375,16.95703 l 0.287109,2.82617 -0.123047,10.78906 -0.121094,10.78906 -0.416015,3.21289 c -1.802202,13.96329 -4.956163,26.43684 -9.740235,38.52344 l -2.078125,5.25391 -2.222656,4.50976 c -16.485603,33.46217 -43.999383,59.74024 -77.066403,73.60547 l -3.46875,1.45313 -0.64063,0.63476 -0.64258,0.63282 v 7.38085 7.38086 l 0.1836,0.44922 0.18554,0.45117 h 0.7793 0.78125 l 3.4082,-1.25586 c 12.71243,-4.67781 22.2962,-9.79173 35.08399,-18.7207 8.45681,-5.90491 13.55466,-10.24116 22.27539,-18.94726 30.371014,-30.32002 45.900152,-63.46982 49.222656,-105.07813 l 0.328125,-4.10937 0.002,-7.58008 0.002,-7.57813 -0.322266,-4.23828 c -2.178743,-28.72026 -9.402217,-51.59504 -23.742187,-75.17383 l -2.828125,-4.64843 -3.830078,-5.20313 c -2.10611,-2.8617 -4.836161,-6.3679 -6.06836,-7.79101 -1.2322,-1.42312 -2.640358,-3.0582 -3.128906,-3.63477 -12.482459,-14.73155 -33.919729,-31.53297 -51.652349,-40.48438 l -1.52539,-0.77148 h -0.86719 z" /><path
         id="path43-1-0"
         style="fill:#c7945c"
         d="m -202.26953,206.41211 c -8.05574,-0.26811 -20.9944,0.9687 -37.60352,8.13867 -4.22435,2.08052 -7.97079,4.40794 -11.04492,6.83399 -1.88673,1.47484 -3.81465,2.91116 -5.61914,4.48242 -4.19499,4.17622 -8.37625,8.42312 -11.70313,13.3457 -1.17913,1.76786 -2.49298,3.46231 -3.33007,5.42969 -2.55181,5.00414 -4.87387,10.17448 -6.14844,15.66797 -0.81949,3.42928 -1.41902,6.91211 -1.92188,10.39843 -0.15711,2.78976 -0.42711,5.57912 -0.51562,8.36914 0.31252,5.77287 0.56194,11.59507 1.95508,17.23243 0.35537,1.64003 0.73257,3.27358 1.41406,4.81445 2.34504,6.63602 5.84492,12.91481 10.66406,18.07617 1.9824,2.14821 4.17371,4.10798 6.42383,5.96485 2.1432,1.39437 4.22816,2.88635 6.4082,4.21679 2.14848,1.01536 4.2526,2.14343 6.42969,3.08789 2.23265,0.69581 4.42313,1.5488 6.68164,2.14649 3.84949,0.80032 7.74702,1.53354 11.66211,1.80273 1.32404,-0.25641 2.49427,-1.12264 3.01758,-2.38086 0.54398,-0.82476 0.21868,-1.87721 0.34179,-2.8125 0.092,-5.2541 0.30351,-10.50912 0.31641,-15.76367 -0.11178,-9.04392 -0.22681,-18.08695 -0.33984,-27.13086 l -2.31446,-2.31445 c -9.26367,-0.0466 -18.52735,-0.0953 -27.79101,-0.14453 -0.8628,-0.14296 -0.49713,-1.19899 -0.57227,-1.80469 0,-4.11159 10e-6,-8.22241 0,-12.33398 0.68903,-0.2093 1.54001,-0.0302 2.29102,-0.0899 7.98419,-0.0268 15.97168,0.0703 23.95312,-0.16211 1.00248,-0.0705 2.0006,-0.18724 3.00196,-0.27344 0.53077,-0.87957 1.20829,-1.71282 1.65039,-2.61914 0.0553,-8.69517 0.10759,-17.39075 0.16015,-26.08593 0.82775,-0.35054 1.79095,-0.0648 2.67579,-0.14258 3.82328,0.0464 7.66077,0.0581 11.4746,0.1289 0.086,8.89584 0.17207,17.79168 0.25782,26.6875 0.68496,0.62927 1.29692,1.40655 2.02734,1.94336 1.78072,0.24275 3.55309,0.60352 5.35938,0.48829 7.25351,0.01 14.50626,0.0224 21.75976,0.0351 0.84311,0.26883 0.44469,1.34549 0.52539,2.00586 -0.0417,3.94873 -0.0848,7.89699 -0.12695,11.8457 -0.43718,0.53366 -1.25573,0.16713 -1.86914,0.28516 -8.44976,0.079 -16.89986,0.15921 -25.34961,0.24023 -0.77734,0.77735 -1.55469,1.55469 -2.33203,2.33204 -0.051,20.31462 -0.0117,41.61292 -0.0606,61.95898 10.74759,-3.2331 19.01221,-8.1496 19.26758,-8.30469 l 1.53711,-0.93359 0.31054,0.3164 0.3125,0.31641 0.57032,7.06641 c 0.31374,3.88582 0.55246,7.98872 0.53125,9.11914 -0.0257,1.37141 0.025,2.18828 0.0215,3.24414 2.6415,-1.25661 5.47042,-2.55726 8.15625,-3.69141 15.47752,-6.85043 28.34751,-19.11907 36.4336,-33.93945 5.45031,-9.89715 8.76408,-20.93118 9.85156,-32.16992 0.40829,-2.48005 0.20139,-4.99343 0.24609,-7.49414 -0.0423,-2.33081 0.075,-4.67135 -0.0684,-6.9961 -0.72634,-6.81092 -1.87965,-13.60131 -3.96289,-20.13867 -3.46472,-11.16767 -9.49037,-21.59347 -17.80469,-29.85156 -4.18881,-4.23672 -8.98225,-7.8205 -14.00195,-11.00977 -1.73989,-1.20549 -3.72821,-1.98499 -5.60742,-2.94336 -9.17397,-4.2442 -18.56187,-6.18937 -27.60156,-6.49023 z" /></g></g></svg>
